<svg width="180" height="177" viewBox="0 0 180 177" fill="none" xmlns="http://www.w3.org/2000/svg">
<path d="M13.0186 0C23.0178 0 32.4598 4.83424 38.6159 13.1056L109.333 108.122C110.251 109.355 110.749 110.875 110.749 112.44V174.195C110.749 175.744 109.553 177 108.077 177C107.254 177 106.478 176.602 105.971 175.922L72.0813 130.407C71.1631 129.173 70.6642 127.653 70.6642 126.088V99.185C70.6642 98.5566 70.4632 97.9464 70.0935 97.4522L0.570876 4.53799C-0.340771 3.31961 -0.138905 1.55613 1.02176 0.599145C1.49252 0.21099 2.07381 0 2.67244 0H13.0186ZM175.992 0C178.205 0 180 1.88391 180 4.20783C180 5.15053 179.698 6.06592 179.144 6.80724L124.267 80.1362C123.355 81.3545 121.675 81.5663 120.515 80.6092C120.345 80.4695 120.192 80.3087 120.06 80.1305L107.832 63.7032C107.075 62.6867 107.077 61.2596 107.835 60.2447L131.769 28.2166C132.224 27.6071 132.123 26.7254 131.542 26.2473C131.307 26.0536 131.016 25.9483 130.717 25.9483L81.0413 25.9487C80.2187 25.9487 79.442 25.5511 78.9355 24.8706L63.7975 4.53234C62.8888 3.31152 63.095 1.54858 64.2579 0.594722C64.7278 0.209344 65.307 0 65.9032 0H175.992Z" fill="white"/>
</svg>
